# xmcd
#
# Track frame offsets: 
#        150
#        4417
#        29098
#        52283
#        72865
#        107001
#        140077
#        183564
#        211098
#        232580
#        243778
#        276127
#
# Disc length: 4172 seconds
#
# Revision: 0
# Processed by: cddbd v1.5.1PL0 Copyright (c) Steve Scherf et al.
# Submitted via: ExactAudioCopy v0.95a5
#
DISCID=ac104a0c
DTITLE=Bruce Hornsby and Béla Fleck - Live at the Gilmore Keyboard Festi
DTITLE=val, Disc 1
DYEAR=1996
DGENRE=Bluegrass
TTITLE0=01 - [Tuning]
TTITLE1=02 - New South Africa
TTITLE2=03 - Western Skyline ->
TTITLE3=04 - It Takes a Lot to Laugh, It Takes a Train to Cry - Wester
TTITLE3=n Skyline
TTITLE4=05 - Rainbow's Cadillac
TTITLE5=06 - Sunset Road
TTITLE6=07 - The Way It Is
TTITLE7=08 - Instrumental Duet
TTITLE8=09 - Mandolin Rain ->
TTITLE9=10 - Brokedown Palace
TTITLE10=11 - Béla Solo Improvisation
TTITLE11=12 - Instrumental Duet
EXTD=
EXTT0=
EXTT1=
EXTT2=
EXTT3=
EXTT4=
EXTT5=
EXTT6=
EXTT7=
EXTT8=
EXTT9=
EXTT10=
EXTT11=
PLAYORDER=
